<?xml version="1.0" encoding="utf-8"?>
<!-- Svg Vector Icons : http://www.onlinewebfonts.com/icon -->
<!DOCTYPE svg PUBLIC "-//W3C//DTD SVG 1.1//EN" "http://www.w3.org/Graphics/SVG/1.1/DTD/svg11.dtd">
<svg version="1.1" xmlns="http://www.w3.org/2000/svg" xmlns:xlink="http://www.w3.org/1999/xlink" x="0px" y="0px" viewBox="0 0 256 256" enable-background="new 0 0 256 256" xml:space="preserve">
<metadata> Svg Vector Icons : http://www.onlinewebfonts.com/icon </metadata>
<g><g><path fill="#000000" d="M214.1,208.7c-9.6-25.1-34-44.5-64.5-50.8c17.5-8.7,29.5-26.7,29.5-47.5c0-29.3-23.8-53.1-53.1-53.1c-29.3,0-53.1,23.8-53.1,53.1c0,21.3,12.6,39.7,30.8,48.1c-29.2,6.9-52.5,25.9-61.7,50.3C22.1,187.6,10,159.2,10,128C10,62.8,62.8,10,128,10c65.2,0,118,52.8,118,118C246,159.2,233.9,187.6,214.1,208.7z M201.4,220.4c-20.1,16-45.6,25.6-73.4,25.6s-53.2-9.6-73.4-25.6c6.6-29.1,36.9-51.1,73.4-51.1C164.5,169.3,194.8,191.3,201.4,220.4z M84.7,110.3C84.7,87.5,103.2,69,126,69c22.8,0,41.3,18.5,41.3,41.3c0,22.8-18.5,41.3-41.3,41.3C103.2,151.6,84.7,133.1,84.7,110.3z"/></g></g>
</svg>